<svg width="24" height="25" viewBox="0 0 24 25" fill="none" xmlns="http://www.w3.org/2000/svg">
<g clip-path="url(#clip0_15_632)">
<path d="M23.9873 12.7339C23.9873 11.7097 23.9057 10.9622 23.729 10.1871H12.239V14.81H18.9834C18.8475 15.9589 18.1132 17.689 16.4815 18.8516L16.4586 19.0064L20.0915 21.8712L20.3432 21.8968C22.6547 19.7237 23.9873 16.5264 23.9873 12.7339Z" fill="#4285F4"/>
<path d="M12.239 24.9141C15.5432 24.9141 18.3171 23.8067 20.3432 21.8967L16.4815 18.8516C15.4481 19.5852 14.0611 20.0973 12.239 20.0973C9.00285 20.0973 6.25616 17.9243 5.27704 14.9208L5.13353 14.9332L1.35598 17.909L1.30658 18.0488C3.319 22.1181 7.45266 24.9141 12.239 24.9141Z" fill="#34A853"/>
<path d="M5.27705 14.9208C5.0187 14.1457 4.86919 13.3152 4.86919 12.457C4.86919 11.5988 5.0187 10.7684 5.26346 9.99331L5.25662 9.82823L1.43173 6.80457L1.30659 6.86516C0.477171 8.5538 0.00125122 10.4501 0.00125122 12.457C0.00125122 14.464 0.477171 16.3602 1.30659 18.0488L5.27705 14.9208Z" fill="#FBBC05"/>
<path d="M12.239 4.8167C14.537 4.8167 16.0871 5.8271 16.971 6.67147L20.4247 3.23884C18.3036 1.23187 15.5432 0 12.239 0C7.45266 0 3.319 2.7959 1.30658 6.86517L5.26345 9.99332C6.25616 6.98979 9.00285 4.8167 12.239 4.8167Z" fill="#EB4335"/>
</g>
<defs>
<clipPath id="clip0_15_632">
<rect width="24" height="25" fill="white"/>
</clipPath>
</defs>
</svg>
